<svg width="72" height="72" viewBox="0 0 72 72" fill="none" xmlns="http://www.w3.org/2000/svg">
<path d="M70.7047 12.6529C71.6356 11.2005 72.0795 9.51581 71.9885 7.78103C71.7715 3.64145 68.3589 0.228794 64.2193 0.0118056C59.8788 -0.215771 56.3466 2.89279 55.6763 6.80988H16.3239C15.6526 2.8863 12.1126 -0.217465 7.78102 0.0119467C3.64144 0.228794 0.228785 3.64145 0.0116554 7.78089C-0.0794035 9.51553 0.364455 11.2002 1.29537 12.6529C2.23561 14.12 2.23561 15.9429 1.29537 17.4101C0.364597 18.8625 -0.0792623 20.5471 0.0116554 22.2817C0.232314 26.4923 3.79716 30.0626 8.22785 30.0626C12.3156 30.0626 15.6687 27.0817 16.3239 23.2528H55.6763C56.3438 27.1536 59.8647 30.2791 64.2193 30.0509C68.3589 29.8339 71.7715 26.4213 71.9885 22.2817C72.0796 20.5469 71.6356 18.8623 70.7048 17.4101C69.7646 15.9429 69.7646 14.12 70.7047 12.6529ZM68.3275 18.9336C68.9377 19.8856 69.2288 20.9923 69.1688 22.1339C69.0264 24.8497 66.7874 27.0889 64.0715 27.2313C60.9631 27.3933 58.3807 24.9333 58.3807 21.8411C58.3807 21.0614 57.7486 20.4293 56.9689 20.4293H15.0313C14.2516 20.4293 13.6195 21.0614 13.6195 21.8411C13.6195 24.9201 11.0486 27.3955 7.92883 27.2313C5.21288 27.0889 2.97368 24.8497 2.83137 22.1339C2.77152 20.9923 3.06248 19.8856 3.67264 18.9334C5.21514 16.5265 5.21514 13.5361 3.67264 11.1293C3.06234 10.1769 2.77152 9.07026 2.83137 7.92884C2.97382 5.21275 5.21288 2.97369 7.92883 2.83138C11.0452 2.66691 13.6195 5.13863 13.6195 8.22164C13.6195 9.00122 14.2516 9.63341 15.0313 9.63341H56.9689C57.7486 9.63341 58.3807 9.00136 58.3807 8.22164C58.3807 5.14993 60.943 2.6679 64.0715 2.83138C66.7874 2.97369 69.0265 5.21275 69.1688 7.92884C69.2288 9.0704 68.9377 10.1771 68.3274 11.1293C66.7852 13.5361 66.7852 16.5265 68.3275 18.9336Z" fill="#1C1C1C"/>
<path d="M36.0001 26.8235C23.4862 26.8235 13.4119 37.0128 13.4119 49.4117C13.4119 61.8288 23.5063 72 36.0001 72C48.5144 72 58.5884 61.8103 58.5884 49.4117C58.5884 36.9916 48.4904 26.8235 36.0001 26.8235ZM21.5357 35.9578C28.5926 43.5193 28.5972 55.2994 21.5357 62.8659C14.4648 55.269 14.4704 43.5485 21.5357 35.9578ZM23.5992 64.7897C31.6154 56.1528 31.701 42.7627 23.5992 34.0339C30.8352 28.1873 41.1533 28.1778 48.4012 34.0339C40.3849 42.6706 40.2992 56.0607 48.4012 64.7897C41.1651 70.6364 30.8469 70.6458 23.5992 64.7897ZM50.4644 62.8659C43.4076 55.3043 43.403 43.5241 50.4644 35.9578C57.5355 43.5545 57.53 55.2751 50.4644 62.8659Z" fill="#1C1C1C"/>
</svg>
