<svg width="89" height="67" viewBox="0 0 89 67" fill="none" xmlns="http://www.w3.org/2000/svg">
<path d="M0.00676582 14.4021C-0.0166717 14.4169 0.0302033 29.2396 0.00676582 29.263C0.00676582 37.9794 19.6599 42.9716 39.6708 43.6552V49.42H33.3427C33.033 48.0841 32.2805 46.8923 31.2077 46.0381C30.1348 45.184 28.8047 44.7178 27.4333 44.7153C21.8013 44.6841 19.2302 51.9146 23.5505 55.4481C19.2466 58.9692 21.7802 66.2114 27.4333 66.1802C28.8036 66.1784 30.133 65.7134 31.2056 64.8607C32.2782 64.0081 33.0311 62.8178 33.3419 61.4833H55.4513C55.6697 62.4201 56.1077 63.2916 56.7292 64.0257C57.3508 64.7599 58.138 65.3357 59.026 65.7056C59.9139 66.0755 60.8771 66.2289 61.8361 66.1532C62.795 66.0775 63.7222 65.7748 64.5411 65.2701C65.36 64.7654 66.0471 64.0732 66.5457 63.2505C67.0443 62.4279 67.3401 61.4985 67.4087 60.5391C67.4774 59.5796 67.3168 58.6176 66.9403 57.7324C66.5638 56.8472 65.9822 56.0642 65.2435 55.4481C65.9272 54.8789 66.4773 54.1661 66.8548 53.3605C67.2323 52.5549 67.4279 51.6761 67.4279 50.7864C67.2716 43.5599 57.1763 42.4903 55.4536 49.4192H49.1255V43.6552C69.1365 42.9716 88.7896 37.9794 88.7896 29.263C88.7896 29.2356 88.7896 14.4278 88.7896 14.4021C88.1232 -4.79873 0.676297 -4.80264 0.00676582 14.4021ZM44.4005 2.66143C68.7271 2.53643 93.8263 9.9044 83.631 18.0935C68.8779 8.29658 19.9177 8.29893 5.17005 18.0935C-5.04402 9.90752 20.1036 2.52783 44.4005 2.66143ZM81.0169 19.7474C66.6419 28.1224 22.1583 28.1224 7.78411 19.7474C22.1615 11.3716 66.6419 11.3724 81.0169 19.7474ZM56.6661 52.1544C56.8457 52.1545 57.0235 52.1192 57.1895 52.0505C57.3554 51.9819 57.5061 51.8812 57.6331 51.7542C57.7601 51.6272 57.8608 51.4764 57.9295 51.3105C57.9981 51.1446 58.0334 50.9668 58.0333 50.7872C58.0333 49.9034 58.3839 49.0557 59.0081 48.43C59.6323 47.8043 60.4792 47.4518 61.363 47.4497C65.4943 47.5278 65.8739 53.5271 61.7622 54.0903C61.4297 54.1301 61.1233 54.2905 60.9011 54.5411C60.679 54.7918 60.5566 55.1153 60.5572 55.4502C60.5578 55.7852 60.6813 56.1082 60.9043 56.3581C61.1273 56.608 61.4342 56.7674 61.7669 56.806C65.8544 57.3528 65.5122 63.3685 61.363 63.4419C60.4802 63.4409 59.6339 63.0897 59.0097 62.4655C58.3855 61.8413 58.0344 60.995 58.0333 60.1122C58.0334 59.9326 57.9981 59.7548 57.9295 59.5889C57.8608 59.423 57.7601 59.2722 57.6331 59.1452C57.5061 59.0183 57.3554 58.9176 57.1895 58.8489C57.0235 58.7802 56.8457 58.7449 56.6661 58.745H32.1349C31.9553 58.7449 31.7775 58.7802 31.6116 58.8489C31.4457 58.9176 31.2949 59.0183 31.1679 59.1452C31.0409 59.2722 30.9402 59.423 30.8716 59.5889C30.8029 59.7548 30.7676 59.9326 30.7677 60.1122C30.7675 60.7534 30.5821 61.381 30.2338 61.9194C29.8855 62.4578 29.3892 62.8842 28.8045 63.1473C28.2197 63.4105 27.5714 63.4992 26.9375 63.4028C26.3035 63.3064 25.7109 63.029 25.2308 62.604C24.7507 62.1789 24.4036 61.6243 24.2311 61.0067C24.0586 60.3891 24.0681 59.7348 24.2584 59.1225C24.4488 58.5102 24.8119 57.9658 25.3042 57.5549C25.7964 57.144 26.3969 56.8839 27.0333 56.806C27.366 56.7675 27.673 56.6082 27.8961 56.3584C28.1192 56.1085 28.2428 55.7855 28.2434 55.4506C28.2441 55.1157 28.1218 54.7921 27.8998 54.5414C27.6777 54.2907 27.3713 54.1302 27.0388 54.0903C22.9443 53.5325 23.2888 47.5224 27.438 47.4497C28.3217 47.4518 29.1685 47.8042 29.7927 48.4297C30.4169 49.0552 30.7675 49.9028 30.7677 50.7864C30.7676 50.966 30.8029 51.1438 30.8716 51.3097C30.9402 51.4757 31.0409 51.6264 31.1679 51.7534C31.2949 51.8804 31.4457 51.9811 31.6116 52.0498C31.7775 52.1184 31.9553 52.1537 32.1349 52.1536L56.6661 52.1544ZM42.4083 49.42V43.7247C43.7365 43.7442 45.0646 43.7442 46.3927 43.7247V49.42H42.4083ZM86.0568 29.2638C86.0568 34.8177 68.9474 41.006 44.4005 41.006C19.8536 41.006 2.74427 34.8169 2.74427 29.263V19.62C3.24996 20.0744 3.78554 20.4943 4.34739 20.8771C18.5911 31.3755 70.2341 31.3661 84.4529 20.8771C85.0153 20.4945 85.5512 20.0743 86.0568 19.6192V29.2638Z" fill="#1C1C1C"/>
<path d="M44.4006 30.8513C38.8709 31.0263 38.8725 39.0443 44.4006 39.2193C49.9303 39.0435 49.9287 31.0255 44.4006 30.8513ZM44.4006 33.5857C44.7792 33.5945 45.1394 33.7511 45.4041 34.022C45.6687 34.2929 45.8169 34.6566 45.8169 35.0353C45.8169 35.414 45.6687 35.7777 45.4041 36.0486C45.1394 36.3195 44.7792 36.4761 44.4006 36.4849C44.022 36.4761 43.6618 36.3195 43.3971 36.0486C43.1324 35.7777 42.9842 35.414 42.9842 35.0353C42.9842 34.6566 43.1324 34.2929 43.3971 34.022C43.6618 33.7511 44.022 33.5945 44.4006 33.5857Z" fill="#1C1C1C"/>
<path d="M28.7482 29.6279C23.2186 29.8037 23.2201 37.8209 28.7482 37.9959C34.2771 37.8178 34.2764 29.8029 28.7482 29.6279ZM28.7482 32.3623C29.1269 32.3711 29.487 32.5277 29.7517 32.7986C30.0164 33.0695 30.1646 33.4332 30.1646 33.8119C30.1646 34.1907 30.0164 34.5544 29.7517 34.8252C29.487 35.0961 29.1269 35.2527 28.7482 35.2615C28.3696 35.2527 28.0094 35.0961 27.7448 34.8252C27.4801 34.5544 27.3319 34.1907 27.3319 33.8119C27.3319 33.4332 27.4801 33.0695 27.7448 32.7986C28.0094 32.5277 28.3696 32.3711 28.7482 32.3623Z" fill="#1C1C1C"/>
<path d="M13.0959 26.5427C7.56621 26.7185 7.56777 34.7357 13.0959 34.9107C18.6248 34.7349 18.624 26.7177 13.0959 26.5427ZM13.0959 29.2771C13.4745 29.2859 13.8347 29.4425 14.0994 29.7134C14.3641 29.9843 14.5122 30.348 14.5122 30.7267C14.5122 31.1054 14.3641 31.4692 14.0994 31.74C13.8347 32.0109 13.4745 32.1675 13.0959 32.1763C12.7173 32.1675 12.3571 32.0109 12.0924 31.74C11.8277 31.4692 11.6796 31.1054 11.6796 30.7267C11.6796 30.348 11.8277 29.9843 12.0924 29.7134C12.3571 29.4425 12.7173 29.2859 13.0959 29.2771Z" fill="#1C1C1C"/>
<path d="M60.0529 29.6279C54.524 29.8037 54.5248 37.8209 60.0529 37.9959C65.5826 37.8178 65.581 29.8029 60.0529 29.6279ZM60.0529 32.3623C60.4315 32.3711 60.7917 32.5277 61.0564 32.7986C61.321 33.0695 61.4692 33.4332 61.4692 33.8119C61.4692 34.1907 61.321 34.5544 61.0564 34.8252C60.7917 35.0961 60.4315 35.2527 60.0529 35.2615C59.6742 35.2527 59.3141 35.0961 59.0494 34.8252C58.7847 34.5544 58.6365 34.1907 58.6365 33.8119C58.6365 33.4332 58.7847 33.0695 59.0494 32.7986C59.3141 32.5277 59.6742 32.3711 60.0529 32.3623Z" fill="#1C1C1C"/>
<path d="M75.7052 26.5427C70.1763 26.7185 70.1771 34.7357 75.7052 34.9107C81.2349 34.7349 81.2333 26.7177 75.7052 26.5427ZM75.7052 29.2771C76.0839 29.2859 76.444 29.4425 76.7087 29.7134C76.9734 29.9843 77.1216 30.348 77.1216 30.7267C77.1216 31.1054 76.9734 31.4692 76.7087 31.74C76.444 32.0109 76.0839 32.1675 75.7052 32.1763C75.3266 32.1675 74.9664 32.0109 74.7017 31.74C74.4371 31.4692 74.2889 31.1054 74.2889 30.7267C74.2889 30.348 74.4371 29.9843 74.7017 29.7134C74.9664 29.4425 75.3266 29.2859 75.7052 29.2771Z" fill="#1C1C1C"/>
</svg>
