<svg width="74" height="75" viewBox="0 0 74 75" fill="none" xmlns="http://www.w3.org/2000/svg">
<path d="M30.3992 36.5975C29.8994 37.4629 29.7668 38.4713 30.0256 39.4366L30.8713 42.5929C31.1299 43.5582 31.7489 44.365 32.6146 44.8648C33.1911 45.1977 33.8308 45.3676 34.4793 45.3676C34.8043 45.3676 35.1315 45.325 35.4537 45.2386C36.419 44.98 37.2259 44.3608 37.7257 43.4954C38.2254 42.6299 38.3581 41.6216 38.0993 40.6562L37.2534 37.4999C36.9948 36.5346 36.3758 35.7277 35.5102 35.228C34.645 34.7282 33.6369 34.5956 32.6711 34.8542C31.7057 35.1128 30.8988 35.732 30.3992 36.5975ZM32.2908 37.6896C32.4989 37.3294 32.8345 37.0718 33.2364 36.9642C33.3708 36.9282 33.506 36.9109 33.6391 36.9109C34.3265 36.9109 34.9573 37.3703 35.1436 38.0653L35.9895 41.2216C36.0971 41.6234 36.0417 42.043 35.8339 42.4033C35.6259 42.7635 35.2902 43.0211 34.8883 43.1288C34.0578 43.3513 33.2034 42.8569 32.981 42.0277L32.1353 38.8715C32.0275 38.4694 32.0828 38.0498 32.2908 37.6896Z" fill="#1C1C1C"/>
<path d="M61.8297 34.8545C60.8646 34.5962 59.8562 34.7286 58.9906 35.2283C58.1252 35.728 57.5062 36.5348 57.2474 37.5001L56.4016 40.6565C56.1429 41.6218 56.2756 42.6301 56.7752 43.4956C57.275 44.361 58.0818 44.9802 59.0471 45.2388C59.3695 45.3252 59.6966 45.3678 60.0216 45.3678C60.6699 45.3678 61.3099 45.1979 61.8862 44.865C62.7518 44.3653 63.3708 43.5584 63.6296 42.5931L64.4753 39.4368C64.7339 38.4715 64.6013 37.4633 64.1017 36.5977C63.6019 35.7323 62.795 35.1132 61.8297 34.8545ZM62.3656 38.8715L61.5199 42.0278C61.2977 42.8571 60.4419 43.3515 59.6126 43.1288C59.2107 43.0212 58.875 42.7635 58.6669 42.4034C58.459 42.0431 58.4037 41.6236 58.5114 41.2218L59.3573 38.0654C59.5435 37.3705 60.1742 36.9111 60.8618 36.9111C60.9948 36.9111 61.13 36.9283 61.2645 36.9644C61.6664 37.072 62.002 37.3297 62.2101 37.6899C62.4179 38.0501 62.4732 38.4698 62.3656 38.8715Z" fill="#1C1C1C"/>
<path d="M38.3474 31.7102V34.9779C38.3474 37.0409 40.0258 38.7194 42.0888 38.7194C44.1519 38.7194 45.8303 37.041 45.8303 34.9779V31.7102C45.8303 29.6471 44.1519 27.9688 42.0888 27.9688C40.0258 27.9688 38.3474 29.6473 38.3474 31.7102ZM43.646 31.7102V34.9779C43.646 35.8365 42.9473 36.5351 42.0888 36.5351C41.2302 36.5351 40.5317 35.8366 40.5317 34.9779V31.7102C40.5317 30.8517 41.2302 30.153 42.0888 30.153C42.9475 30.153 43.646 30.8517 43.646 31.7102Z" fill="#1C1C1C"/>
<path d="M48.6699 31.7102V34.9779C48.6699 37.0409 50.3483 38.7194 52.4114 38.7194C54.4744 38.7194 56.1528 37.041 56.1528 34.9779V31.7102C56.1528 29.6471 54.4744 27.9688 52.4114 27.9688C50.3485 27.9688 48.6699 29.6473 48.6699 31.7102ZM53.9687 31.7102V34.9779C53.9687 35.8365 53.2701 36.5351 52.4116 36.5351C51.5529 36.5351 50.8543 35.8366 50.8543 34.9779V31.7102C50.8543 30.8517 51.553 30.153 52.4116 30.153C53.2701 30.153 53.9687 30.8517 53.9687 31.7102Z" fill="#1C1C1C"/>
<path d="M22.4913 60.6932L22.2424 60.9422L21.9934 60.6932C21.2951 59.9949 20.3666 59.6104 19.379 59.6104C18.3914 59.6104 17.463 59.9949 16.7646 60.6933C16.0662 61.3917 15.6816 62.3201 15.6816 63.3079C15.6816 64.2954 16.0662 65.2239 16.7646 65.9223L20.975 70.1327C21.3245 70.482 21.7835 70.6567 22.2424 70.6566C22.7014 70.6566 23.1606 70.4819 23.51 70.1325L27.7203 65.9223C28.4187 65.2239 28.8032 64.2954 28.8032 63.3079C28.8032 62.3203 28.4187 61.3917 27.7201 60.6933C26.2788 59.2517 23.9329 59.2518 22.4913 60.6932ZM26.1757 64.3777L22.2424 68.311L18.3092 64.3777C17.7191 63.7877 17.7191 62.8278 18.3092 62.2377C18.5949 61.952 18.9748 61.7946 19.379 61.7946C19.7832 61.7946 20.1633 61.952 20.449 62.2377L21.4702 63.2589C21.8969 63.6855 22.5883 63.6855 23.0148 63.2589L24.0359 62.2379C24.6259 61.6481 25.5857 61.6478 26.1757 62.2379C26.7656 62.8276 26.7656 63.7877 26.1757 64.3777Z" fill="#1C1C1C"/>
<path d="M56.5645 67.3475C56.5645 67.9506 57.0533 68.4396 57.6566 68.4396H64.6615C65.2648 68.4396 65.7536 67.9506 65.7536 67.3475C65.7536 66.7444 65.2648 66.2554 64.6615 66.2554H57.6566C57.0534 66.2554 56.5645 66.7444 56.5645 67.3475Z" fill="#1C1C1C"/>
<path d="M68.9171 74.5562C70.3051 74.5562 71.6015 74.0072 72.5676 73.0104C73.5336 72.0137 74.0415 70.7006 73.998 69.3133L72.554 23.2435C72.5338 22.5966 72.3844 21.9713 72.1097 21.3849L67.9818 12.5682C67.8245 12.2325 67.7415 11.8588 67.7415 11.4878V3.48696C67.7415 1.56422 66.1773 0 64.2546 0H30.2463C28.3236 0 26.7594 1.56422 26.7594 3.48696V11.4878C26.7594 11.8588 26.6764 12.2325 26.5191 12.5682L22.3908 21.3849C22.1164 21.9712 21.9669 22.5965 21.9467 23.2433L21.6856 31.5756C21.6667 32.1784 22.1401 32.6825 22.7429 32.7013C22.7547 32.7018 22.7662 32.7019 22.7777 32.7019C23.3652 32.7019 23.8502 32.2352 23.8687 31.644L24.1298 23.3118C24.1407 22.9634 24.2213 22.6268 24.3691 22.3111L28.4972 13.4945C28.7893 12.8707 28.9436 12.1768 28.9436 11.4878V3.48696C28.9436 2.76863 29.5281 2.18426 30.2463 2.18426H64.2546C64.9729 2.18426 65.5573 2.76863 65.5573 3.48696V11.4878C65.5573 12.1768 65.7117 12.8708 66.0037 13.4945L70.1317 22.3111C70.2796 22.6269 70.36 22.9636 70.3711 23.3119L71.815 69.3819C71.8398 70.1732 71.5501 70.922 70.9991 71.4903C70.4482 72.0588 69.7088 72.3719 68.9171 72.3719H44.2972C44.4829 71.8472 44.5346 71.2785 44.4362 70.7155L42.6436 60.4614C43.9017 60.4589 45.1379 60.1511 46.243 59.5611C46.8739 59.2241 47.6272 59.2242 48.2579 59.5611C49.4908 60.2195 50.8867 60.5274 52.2951 60.4503C56.2629 60.2347 59.4471 56.9513 59.5444 52.9755C59.6241 49.7262 57.6386 46.7654 54.6036 45.608C54.3995 45.5301 54.2311 45.3748 54.1299 45.1708C52.823 42.5382 50.1869 40.9029 47.2504 40.9029C44.3138 40.9029 41.6777 42.5382 40.3707 45.171C40.2696 45.3749 40.1013 45.5301 39.897 45.608C37.8337 46.3949 36.2343 48.0225 35.4623 50.0346C34.3246 49.3718 33.0039 48.9899 31.5949 48.9899C30.1546 48.9899 28.7768 49.3802 27.5677 50.1247C26.4176 49.4756 25.126 49.1356 23.7901 49.1356C23.6331 49.1356 23.4766 49.1418 23.3202 49.1514L23.7197 36.4038C23.7387 35.8009 23.2653 35.2968 22.6624 35.278C22.6508 35.2776 22.6391 35.2774 22.6276 35.2774C22.0402 35.2774 21.5551 35.7441 21.5366 36.3354L21.1524 48.5962C19.639 47.7092 17.908 47.2328 16.1328 47.2328C15.8319 47.2328 15.5276 47.2465 15.2285 47.2734C14.6277 47.3277 14.1847 47.8586 14.2389 48.4593C14.2931 49.06 14.8259 49.5025 15.4246 49.4488C15.6588 49.4277 15.897 49.4169 16.1326 49.4169C17.9999 49.4169 19.805 50.0921 21.2151 51.3184C21.4957 51.5621 21.881 51.6467 22.2378 51.5425C22.7437 51.3947 23.2659 51.3198 23.7899 51.3198C24.9329 51.3198 26.0303 51.6671 26.9638 52.324C27.3533 52.5981 27.8749 52.5883 28.2537 52.3C29.2215 51.5634 30.3768 51.1742 31.5947 51.1742C34.3041 51.1742 36.5626 53.1352 37.0295 55.7117H8.52048C8.87899 53.8234 9.92526 52.1311 11.4952 50.9565C11.9782 50.5952 12.0768 49.9108 11.7156 49.4278C11.3543 48.9448 10.6699 48.8462 10.1869 49.2075C8.06237 50.7968 6.6841 53.1267 6.30448 55.7117H5.42524C3.82985 55.7117 2.4727 56.8523 2.19792 58.4238L0.0493321 70.7155C-0.117837 71.671 0.144275 72.6449 0.768391 73.3876C1.39236 74.1302 2.30669 74.556 3.27665 74.556H68.9171V74.5562ZM40.6753 47.649C41.3945 47.3748 41.9812 46.8396 42.3273 46.1421C43.2629 44.2578 45.1493 43.0872 47.2505 43.0872C49.3518 43.0872 51.2381 44.2578 52.1737 46.1423C52.5201 46.8398 53.1068 47.3749 53.8256 47.649C55.9973 48.4771 57.418 50.5963 57.3609 52.9221C57.2913 55.7664 55.0143 58.1152 52.1766 58.2694C51.1673 58.3242 50.1678 58.1047 49.2868 57.6344C48.0118 56.9533 46.4891 56.9533 45.2141 57.6344C44.3332 58.1047 43.3334 58.3242 42.3241 58.2694C42.3002 58.2681 42.2768 58.2688 42.2532 58.269C41.9317 56.837 40.7031 55.7989 39.2394 55.7197C39.0342 54.1091 38.3322 52.6516 37.2894 51.5086C37.7063 49.7547 38.9684 48.3 40.6753 47.649ZM2.44066 71.9824C2.22966 71.7312 2.14448 71.4149 2.20098 71.0916L4.34971 58.7999C4.4413 58.276 4.89373 57.8958 5.42553 57.8958H39.0603C39.5919 57.8958 40.0445 58.276 40.1361 58.7999L42.2848 71.0916C42.3413 71.4148 42.2561 71.7312 42.0451 71.9824C41.8341 72.2336 41.5372 72.3719 41.2091 72.3719H3.27665C2.94858 72.3719 2.65166 72.2336 2.44066 71.9824Z" fill="#1C1C1C"/>
<path d="M61.4615 6.06836H54.7913C54.1881 6.06836 53.6992 6.55734 53.6992 7.16049C53.6992 7.76364 54.1881 8.25262 54.7913 8.25262H61.4615C62.0648 8.25262 62.5536 7.76364 62.5536 7.16049C62.5536 6.55734 62.0648 6.06836 61.4615 6.06836Z" fill="#1C1C1C"/>
<path d="M50.0324 6.0686H33.0393C32.436 6.0686 31.9471 6.55759 31.9471 7.16073C31.9471 7.76388 32.436 8.25287 33.0393 8.25287H50.0324C50.6357 8.25287 51.1245 7.76388 51.1245 7.16073C51.1245 6.55759 50.6355 6.0686 50.0324 6.0686Z" fill="#1C1C1C"/>
</svg>
