<svg width="32" height="36" viewBox="0 0 32 36" fill="none" xmlns="http://www.w3.org/2000/svg">
<path d="M30.9325 8.61398L16.2573 0.141328C15.9309 -0.0471094 15.5289 -0.0471094 15.2026 0.141328L0.527343 8.61398C0.201023 8.80242 0 9.15054 0 9.52734V26.4727C0 26.8495 0.201023 27.1976 0.527343 27.386L15.2026 35.8587C15.3657 35.9529 15.5478 36 15.7299 36C15.912 36 16.0941 35.9529 16.2573 35.8587L30.9325 27.386C31.2588 27.1976 31.4598 26.8495 31.4598 26.4727V9.52734C31.4598 9.15054 31.2588 8.80235 30.9325 8.61398ZM23.4093 6.70598L10.8434 13.9608L8.06119 12.3544L20.627 5.09955L23.4093 6.70598ZM9.78868 15.7875V18.9911L7.00256 17.3824L7.00516 14.1804L9.78868 15.7875ZM15.7299 2.2725L18.5174 3.88188L5.9516 11.1367L3.16406 9.52734L15.7299 2.2725ZM14.6752 33.1186L2.10937 25.8638V11.3541L4.89677 12.9633L4.89276 17.9901C4.89248 18.3671 5.09351 18.7157 5.42011 18.9043L10.3161 21.7313C10.8653 22.0484 11.3606 21.7372 11.3708 21.7313C11.6972 21.543 11.8982 21.1948 11.8982 20.818V17.0056L14.6752 18.6089V33.1186ZM15.7299 16.7822L12.9526 15.1788L25.5185 7.92394L28.2957 9.52734L15.7299 16.7822ZM29.3504 25.8638L16.7846 33.1186V18.6089L29.3504 11.3541V25.8638Z" fill="#1C1C1C"/>
</svg>
