<svg width="32" height="36" viewBox="0 0 32 36" fill="none" xmlns="http://www.w3.org/2000/svg">
<path d="M22.1311 24.3335H20.1513V22.2123H27.5755V11.6063C26.9328 -3.87474 4.8793 -3.86279 4.24238 11.6063V22.2123H11.6666V24.3335H9.68677C4.34547 24.3335 0 28.679 0 34.0203V36H31.8179V34.0203C31.8179 28.679 27.4724 24.3335 22.1311 24.3335ZM15.9089 26.4547C14.7393 26.4547 13.7878 25.5031 13.7878 24.3335V22.9636C15.1209 23.3736 16.697 23.3736 18.0301 22.9636V24.3335C18.0301 25.5031 17.0786 26.4547 15.9089 26.4547ZM21.2119 12.1354V15.8488C21.1802 20.956 14.6985 23.056 11.6695 19.0306H15.9089V16.9094H10.7127C10.6428 16.5666 10.606 16.2119 10.606 15.8488C10.6828 11.9824 10.41 11.2019 10.9256 9.78855C12.3492 10.9249 14.0454 11.5459 15.9427 11.6201C16.9829 11.6618 19.6376 11.2872 21.2119 12.1354ZM25.4543 11.6063V20.0911H21.998C22.8389 18.8877 23.3331 17.4249 23.3331 15.8487V11.2318C23.2046 11.1575 22.6712 9.78672 19.293 9.4942C17.3321 9.32437 16.6188 9.66206 15.1052 9.40618C12.4571 8.95415 10.5817 6.89914 9.66634 4.3909C15.7212 -0.933361 25.4868 3.46762 25.4543 11.6063ZM6.36357 11.6063C6.36357 9.56887 7.00566 7.67875 8.09743 6.12688C8.38804 6.73729 8.7912 7.4503 9.33395 8.15609C8.77657 9.21569 8.48469 10.3938 8.48469 11.6063V15.8487C8.48469 17.4249 8.97886 18.8877 9.81977 20.0911H6.3635L6.36357 11.6063ZM9.68677 26.4547H12.2373C12.8003 27.4254 13.7361 28.1543 14.8484 28.4417V33.8788H7.42417V31.7576H5.30298V33.8788H2.12253C2.19833 29.7724 5.56247 26.4547 9.68677 26.4547ZM26.5149 33.8788V31.7576H24.3937V33.8788H16.9695V28.4417C18.0818 28.1543 19.0176 27.4255 19.5806 26.4547H22.1311C26.2554 26.4547 29.6195 29.7723 29.6953 33.8788H26.5149Z" fill="#1C1C1C"/>
</svg>
