<svg width="36" height="36" viewBox="0 0 36 36" fill="none" xmlns="http://www.w3.org/2000/svg">
<g clip-path="url(#clip0_4_1451)">
<path d="M12.7198 18.043C12.5624 18.9603 13.528 19.6623 14.3521 19.2289L18.0004 17.3109L21.6487 19.2289C22.4727 19.6623 23.4384 18.9602 23.2811 18.043L22.5843 13.9805L25.5359 11.1035C26.2023 10.4539 25.8339 9.31839 24.9124 9.1845L20.8335 8.59176L19.0094 4.89564C18.5975 4.061 17.4037 4.06065 16.9917 4.89564L15.1675 8.59176L11.0886 9.1845C10.1676 9.31832 9.79837 10.4535 10.4651 11.1035L13.4167 13.9805L12.7198 18.043ZM16.0762 10.7334C16.4426 10.6802 16.7594 10.45 16.9233 10.118L18.0003 7.93559L19.0774 10.118C19.2413 10.45 19.5581 10.6802 19.9245 10.7334L22.3328 11.0834L20.5902 12.7821C20.325 13.0406 20.204 13.413 20.2666 13.7779L20.678 16.1766L18.5238 15.0441C18.36 14.958 18.1801 14.9149 18.0003 14.9149C17.6301 14.9149 17.6672 14.944 15.3227 16.1766L15.7341 13.7779C15.7968 13.413 15.6757 13.0406 15.4105 12.7821L13.6678 11.0834L16.0762 10.7334Z" fill="#1C1C1C"/>
<path d="M31.9951 31.4126L27.8089 19.9114C29.4173 17.8229 30.3754 15.2091 30.3754 12.3753C30.3754 5.5515 24.8239 0 18.0001 0C11.1764 0 5.62488 5.5515 5.62488 12.3753C5.62488 15.2091 6.58298 17.8229 8.19134 19.9114L4.0052 31.4126C3.68892 32.2814 4.50211 33.1426 5.38877 32.8741L9.96459 31.4868L12.5776 35.4906C13.0828 36.2647 14.2599 36.1316 14.5769 35.2606L18.0001 25.855L21.4234 35.2606C21.7396 36.1296 22.9164 36.2664 23.4227 35.4906L26.0358 31.4868L30.6116 32.8741C31.4966 33.1424 32.3119 32.2829 31.9951 31.4126ZM18.0001 2.25005C23.5831 2.25005 28.1254 6.79219 28.1254 12.3753C28.1254 18.2184 23.1757 22.7406 17.6673 22.4944C12.2378 22.3181 7.87493 17.8469 7.87493 12.3753C7.87493 6.79219 12.4171 2.25005 18.0001 2.25005ZM13.2322 32.3766L11.3878 29.5505C11.1146 29.1317 10.5977 28.9438 10.1193 29.0888L6.88913 30.068L9.91994 21.7409C11.6262 23.2151 13.7381 24.2315 16.0631 24.5985L13.2322 32.3766ZM25.8811 29.0888C25.4027 28.9438 24.8859 29.1319 24.6126 29.5505L22.7682 32.3766L19.9374 24.5985C22.2623 24.2315 24.3742 23.215 26.0805 21.7409L29.1113 30.068L25.8811 29.0888Z" fill="#1C1C1C"/>
</g>
<defs>
<clipPath id="clip0_4_1451">
<rect width="36" height="36" fill="white"/>
</clipPath>
</defs>
</svg>
