<svg width="47" height="48" viewBox="0 0 47 48" fill="none" xmlns="http://www.w3.org/2000/svg">
<path d="M18.1791 18.1591C18.1791 17.883 17.961 17.6591 17.692 17.6591C17.4272 17.6694 17.2149 17.8874 17.2049 18.1591C17.2049 18.7191 18.1791 18.7191 18.1791 18.1591Z" fill="#1C1C1C"/>
<path d="M29.071 29.3395C28.802 29.3395 28.5839 29.5633 28.5839 29.8395C28.5839 30.3795 29.5581 30.3795 29.5581 29.8395C29.5581 29.5633 29.3401 29.3395 29.071 29.3395Z" fill="#1C1C1C"/>
<path fill-rule="evenodd" clip-rule="evenodd" d="M40.0993 16.7996C40.4813 17.5407 40.9744 18.2156 41.5606 18.7996C43.0755 20.1157 44.0441 21.9755 44.269 23.9996C44.0459 25.9734 43.1152 27.7914 41.658 29.0996C41.0718 29.6835 40.5787 30.3584 40.1967 31.0996C39.9543 31.9291 39.849 32.7944 39.8849 33.6596C40.0478 35.6406 39.4617 37.61 38.2482 39.1596C36.7386 40.4052 34.82 41.0067 32.89 40.8396C32.0471 40.8026 31.2041 40.9108 30.396 41.1596C29.6772 41.557 29.0204 42.0626 28.4475 42.6596C27.1743 44.2259 25.3576 45.2228 23.3815 45.4396C21.4545 45.2239 19.679 44.2662 18.4129 42.7596C17.84 42.1626 17.1832 41.657 16.4645 41.2596C15.6563 41.0108 14.8134 40.9026 13.9704 40.9396C12.0404 41.1067 10.1218 40.5052 8.61218 39.2596C7.3987 37.71 6.81263 35.7406 6.97547 33.7596C7.01145 32.8944 6.90608 32.0291 6.66372 31.1996C6.28173 30.4584 5.78859 29.7835 5.20238 29.1996C3.6875 27.8834 2.71885 26.0236 2.49402 23.9996C2.71707 22.0257 3.64779 20.2077 5.10495 18.8996C5.69117 18.3156 6.1843 17.6407 6.5663 16.8996C6.80865 16.0701 6.91403 15.2048 6.87805 14.3396C6.71521 12.3585 7.30127 10.3891 8.51476 8.83957C10.0244 7.59399 11.943 6.99242 13.873 7.15957C14.7159 7.1965 15.5589 7.08834 16.367 6.83957C17.0858 6.44213 17.7425 5.93653 18.3155 5.33957C19.5887 3.77322 21.4054 2.77633 23.3815 2.55957C25.3085 2.77521 27.084 3.73294 28.3501 5.23957C28.923 5.83653 29.5798 6.34213 30.2985 6.73957C31.1067 6.98833 31.9496 7.0965 32.7926 7.05957C34.7226 6.89242 36.6412 7.49399 38.1508 8.73957C39.3643 10.2891 39.9504 12.2585 39.7875 14.2396C39.7515 15.1048 39.8569 15.9701 40.0993 16.7996ZM17.692 13.6596C15.2708 13.6596 13.308 15.6743 13.308 18.1596C13.308 20.6449 15.2708 22.6596 17.692 22.6596C20.1132 22.6596 22.076 20.6449 22.076 18.1596C22.076 15.6743 20.1132 13.6596 17.692 13.6596ZM18.2571 32.1596C17.8941 32.5291 17.4043 32.7374 16.8931 32.7396C16.3796 32.6804 15.91 32.4142 15.5877 31.9996C14.8322 31.2195 14.8322 29.9596 15.5877 29.1796L28.5059 15.9996C28.9207 15.2808 29.7269 14.9023 30.5279 15.0504C31.3289 15.1985 31.9558 15.842 32.1 16.6641C32.2443 17.4863 31.8756 18.3139 31.1753 18.7396L18.2571 32.1596ZM24.687 29.9196C24.687 32.4049 26.6498 34.4196 29.071 34.4196V34.3396C31.4621 34.34 33.4125 32.3736 33.455 29.9196C33.455 27.4343 31.4922 25.4196 29.071 25.4196C26.6498 25.4196 24.687 27.4343 24.687 29.9196Z" fill="#1C1C1C"/>
</svg>
