<svg width="47" height="48" viewBox="0 0 47 48" fill="none" xmlns="http://www.w3.org/2000/svg">
<path fill-rule="evenodd" clip-rule="evenodd" d="M42.8661 18C42.8661 19.1046 41.9937 20 40.9176 20C38.7654 20 37.0207 21.7909 37.0207 24C37.0207 26.2091 38.7654 28 40.9176 28C41.9937 28 42.8661 28.8954 42.8661 30V34C42.8661 37.3137 40.249 40 37.0207 40H29.2269V34C29.2269 32.8954 28.3545 32 27.2784 32C26.2023 32 25.33 32.8954 25.33 34V40H9.74229C6.51398 40 3.89691 37.3137 3.89691 34V30C3.89691 28.8954 4.76927 28 5.84537 28C7.99758 28 9.74229 26.2091 9.74229 24C9.74229 21.7909 7.99758 20 5.84537 20C4.76927 20 3.89691 19.1046 3.89691 18V14C3.89691 10.6863 6.51398 8 9.74229 8H25.33V14C25.33 15.1046 26.2023 16 27.2784 16C28.3545 16 29.2269 15.1046 29.2269 14V8H37.0207C40.249 8 42.8661 10.6863 42.8661 14V18ZM27.2784 28C28.3545 28 29.2269 27.1046 29.2269 26V22C29.2269 20.8954 28.3545 20 27.2784 20C26.2023 20 25.33 20.8954 25.33 22V26C25.33 27.1046 26.2023 28 27.2784 28Z" fill="#1C1C1C"/>
</svg>
