<svg width="47" height="48" viewBox="0 0 47 48" fill="none" xmlns="http://www.w3.org/2000/svg">
<path fill-rule="evenodd" clip-rule="evenodd" d="M37.0207 4H9.74229C6.51398 4 3.89691 6.68629 3.89691 10V38C3.89691 41.3137 6.51398 44 9.74229 44H37.0207C40.249 44 42.8661 41.3137 42.8661 38V10C42.8661 6.68629 40.249 4 37.0207 4ZM15.4318 34.76C15.3391 35.0055 15.2 35.2298 15.0226 35.42C14.8332 35.5967 14.6157 35.7387 14.3796 35.84C14.1454 35.9425 13.8938 35.9968 13.6392 36C13.1233 35.9926 12.6292 35.7855 12.2558 35.42C12.0784 35.2298 11.9394 35.0055 11.8466 34.76C11.6382 34.2759 11.6382 33.7241 11.8466 33.24C11.9394 32.9945 12.0784 32.7702 12.2558 32.58C12.8161 32.0125 13.654 31.8468 14.3796 32.16C14.6157 32.2613 14.8332 32.4033 15.0226 32.58C15.2 32.7702 15.3391 32.9945 15.4318 33.24C15.6402 33.7241 15.6402 34.2759 15.4318 34.76ZM15.4708 24.76C15.5269 24.6466 15.5663 24.5253 15.5877 24.4C15.5972 24.2668 15.5972 24.1332 15.5877 24C15.5805 23.4705 15.3787 22.9633 15.0226 22.58C14.8332 22.4033 14.6157 22.2613 14.3796 22.16C13.654 21.8468 12.8161 22.0125 12.2558 22.58C12.0754 22.7677 11.9359 22.9927 11.8466 23.24C11.7468 23.4804 11.6938 23.7386 11.6907 24C11.6878 24.5316 11.8911 25.0426 12.2558 25.42C12.6292 25.7855 13.1233 25.9926 13.6392 26C13.907 26.0022 14.1723 25.9477 14.4186 25.84C14.6547 25.7387 14.8722 25.5967 15.0616 25.42L15.2954 25.12C15.3691 25.0085 15.4281 24.8874 15.4708 24.76ZM15.0226 15.42C14.8332 15.5967 14.6157 15.7387 14.3796 15.84C14.1484 15.952 13.8948 16.0068 13.6392 16C13.1233 15.9926 12.6292 15.7855 12.2558 15.42C11.8911 15.0426 11.6878 14.5316 11.6907 14C11.6938 13.7386 11.7468 13.4804 11.8466 13.24C11.9453 12.9976 12.0837 12.7744 12.2558 12.58C12.8161 12.0125 13.654 11.8468 14.3796 12.16C14.6157 12.2613 14.8332 12.4033 15.0226 12.58C15.1947 12.7744 15.3331 12.9976 15.4318 13.24C15.5316 13.4804 15.5846 13.7386 15.5877 14C15.5805 14.5295 15.3787 15.0367 15.0226 15.42ZM21.433 36H33.1238C34.1999 36 35.0723 35.1046 35.0723 34C35.0723 32.8954 34.1999 32 33.1238 32H21.433C20.3569 32 19.4846 32.8954 19.4846 34C19.4846 35.1046 20.3569 36 21.433 36ZM33.1238 26H21.433C20.3569 26 19.4846 25.1046 19.4846 24C19.4846 22.8954 20.3569 22 21.433 22H33.1238C34.1999 22 35.0723 22.8954 35.0723 24C35.0723 25.1046 34.1999 26 33.1238 26ZM21.433 16H33.1238C34.1999 16 35.0723 15.1046 35.0723 14C35.0723 12.8954 34.1999 12 33.1238 12H21.433C20.3569 12 19.4846 12.8954 19.4846 14C19.4846 15.1046 20.3569 16 21.433 16Z" fill="#1C1C1C"/>
</svg>
