<svg width="47" height="48" viewBox="0 0 47 48" fill="none" xmlns="http://www.w3.org/2000/svg">
<g id="Icon">
<g id="Iconography">
<g id="Group">
<g id="Layer_99">
<path id="Path" d="M42.7407 10.28V25.66C42.7521 27.5222 41.9626 29.2941 40.5842 30.5C39.5511 31.3814 38.2542 31.8689 36.9124 31.88C36.5893 31.9098 36.2642 31.9098 35.941 31.88L17.4848 28.46V7.50004L35.941 4.14004C37.5993 3.84552 39.2992 4.32146 40.5842 5.44004C41.9561 6.65104 42.7441 8.41967 42.7407 10.28Z" fill="#1C1C1C"/>
<path id="Path_2" d="M13.5993 8.2002V27.7602L11.6565 27.4002L9.71378 27.0602L8.7424 26.8802C7.66064 26.6984 6.65061 26.2062 5.82825 25.4602C4.56816 24.2357 3.86361 22.5239 3.88549 20.7402V15.2202C3.83504 12.2287 5.8865 9.63526 8.7424 9.0802L13.5993 8.2002Z" fill="#1C1C1C"/>
<path id="Path_3" d="M15.5421 28.12V39C15.5421 41.7614 13.3676 44 10.6852 44C8.00277 44 5.82826 41.7614 5.82826 39V26C5.79854 25.8213 5.79854 25.6387 5.82826 25.46C6.62899 26.1927 7.61041 26.684 8.66469 26.88L9.63607 27.06L11.5788 27.4L15.5421 28.12Z" fill="#1C1C1C"/>
</g>
</g>
</g>
</g>
</svg>
